<svg xmlns="http://www.w3.org/2000/svg" viewBox="0 0 192 192">
  <defs>
    <linearGradient id="g" x1="0" y1="0" x2="1" y2="1">
      <stop offset="0%" stop-color="#60a5fa"/>
      <stop offset="100%" stop-color="#2563eb"/>
    </linearGradient>
  </defs>
  <rect width="192" height="192" rx="38" fill="#ffffff"/>
  <line x1="18" y1="70" x2="60" y2="70" stroke="url(#g)" stroke-width="7" stroke-linecap="round" opacity="0.35"/>
  <line x1="26" y1="84" x2="76" y2="84" stroke="url(#g)" stroke-width="7" stroke-linecap="round" opacity="0.55"/>
  <line x1="18" y1="98" x2="70" y2="98" stroke="url(#g)" stroke-width="7" stroke-linecap="round" opacity="0.75"/>
  <line x1="30" y1="112" x2="74" y2="112" stroke="url(#g)" stroke-width="7" stroke-linecap="round" opacity="0.9"/>
  <path d="M84 34 H104 L116 54" stroke="url(#g)" stroke-width="11" stroke-linecap="round" stroke-linejoin="round" fill="none"/>
  <path d="M116 54 H172 Q179 54 177 63 L162 118 Q160 125 153 125 H128 Q121 125 119 118 L104 63 Q102 54 116 54 Z" fill="url(#g)"/>
  <line x1="132" y1="65" x2="129" y2="115" stroke="white" stroke-width="4" opacity="0.85"/>
  <line x1="149" y1="65" x2="148" y2="115" stroke="white" stroke-width="4" opacity="0.85"/>
  <line x1="122" y1="80" x2="167" y2="80" stroke="white" stroke-width="4" opacity="0.85"/>
  <line x1="126" y1="99" x2="163" y2="99" stroke="white" stroke-width="4" opacity="0.85"/>
  <circle cx="130" cy="140" r="13" fill="url(#g)"/>
  <circle cx="130" cy="140" r="5" fill="white"/>
  <circle cx="158" cy="140" r="13" fill="url(#g)"/>
  <circle cx="158" cy="140" r="5" fill="white"/>
  <ellipse cx="144" cy="158" rx="34" ry="5" fill="#93c5fd" opacity="0.4"/>
</svg>
